<svg id="Layer_1" data-name="Layer 1" xmlns="http://www.w3.org/2000/svg" viewBox="0 0 19.19 19.19"><defs><style>.cls-1{fill:#fff;}</style></defs><title>ios_application_placeholder_white</title><path class="cls-1" d="M190.5,194.42a4.81,4.81,0,0,1,3.92-3.92v.07c0,.5,0,1,0,1.49,0,.06,0,.08-.08.1a3.17,3.17,0,0,0-2.18,2.17.1.1,0,0,1-.12.08H190.5Z" transform="translate(-190.42 -190.42)"/><path class="cls-1" d="M209.54,194.42H208a.08.08,0,0,1-.09-.07,3.16,3.16,0,0,0-1.63-2,5.4,5.4,0,0,0-.57-.23s-.06,0-.06-.07c0-.51,0-1,0-1.54a.3.3,0,0,1,0,0A4.81,4.81,0,0,1,209.54,194.42Z" transform="translate(-190.42 -190.42)"/><path class="cls-1" d="M190.5,205.62h1.56a.09.09,0,0,1,.1.07,3.18,3.18,0,0,0,1.81,2.05c.13.06.27.09.4.15a.09.09,0,0,1,.05.06c0,.52,0,1,0,1.57v0A4.79,4.79,0,0,1,190.5,205.62Z" transform="translate(-190.42 -190.42)"/><path class="cls-1" d="M205.62,209.53v-.07c0-.5,0-1,0-1.49a.09.09,0,0,1,.07-.1,3.17,3.17,0,0,0,2.05-1.81c.06-.13.09-.27.15-.4a.09.09,0,0,1,.06-.05h1.58A4.79,4.79,0,0,1,205.62,209.53Z" transform="translate(-190.42 -190.42)"/><path class="cls-1" d="M196,192v-1.59h3.19V192Z" transform="translate(-190.42 -190.42)"/><path class="cls-1" d="M200.82,192v-1.59H204V192Z" transform="translate(-190.42 -190.42)"/><path class="cls-1" d="M190.42,196H192v3.19h-1.59Z" transform="translate(-190.42 -190.42)"/><path class="cls-1" d="M209.61,199.21H208V196h1.59Z" transform="translate(-190.42 -190.42)"/><path class="cls-1" d="M190.42,200.82H192V204h-1.59Z" transform="translate(-190.42 -190.42)"/><path class="cls-1" d="M208,204v-3.19h1.59V204Z" transform="translate(-190.42 -190.42)"/><path class="cls-1" d="M196,209.61V208h3.19v1.59Z" transform="translate(-190.42 -190.42)"/><path class="cls-1" d="M200.82,208H204v1.59h-3.19Z" transform="translate(-190.42 -190.42)"/></svg>