<svg xmlns="http://www.w3.org/2000/svg" viewBox="0 0 180.07 155.05"><title>soap</title><g id="Layer_1" data-name="Layer 1"><path d="M240.39,242.63c-4.21,18.84-26,26.7-41.19,10-5.61,5.69-11.16,11.43-16.83,17-11.82,11.72-26.21,11.76-37.94.12q-12.59-12.49-25.07-25.09c-11.22-11.35-11.32-25.91-.09-37.19q37.89-38.06,75.95-76c10.56-10.52,24.86-10.85,35.73-.77,2.1,1.95,3.57,2,6,1,8.2-3.16,16.42-.17,21.44,7a10.76,10.76,0,0,0,5.16,3.62c4.69,1.59,6.83,4.69,6.78,9.73,0,1.81,1,3.75,2,5.44,1.89,3.45,4.81,6.54,5.87,10.2,1.44,5,.65,10.6,6,14.06,1,.66,1.55,3.81.88,5.05-2.19,4.07.11,6.56,2.06,9.65,9.45,14.95.34,34.76-17.2,37.51-3.08.48-5.14,1.29-7,4.25-1.37,2.12-5.84,4.33-7.79,3.57C249.78,239.85,245.23,242.3,240.39,242.63Zm-45.75-26.75c-7.25-11.3-8.3-22.74-1.89-34.31s17.19-16.36,30.41-16.61c-6.81-8.86-8.65-9.45-15-4.72-2.61,1.95-5.15,2.92-7.35-.05s-.41-5.23,2-7.18c7.37-5.91,13.75-5.77,22.93.56.06-.15.18-.3.17-.45a22.83,22.83,0,0,1-.14-2.47c.44-6.54-3.55-10.22-8.82-12.36s-9.42.88-13.19,4.67q-37,37.2-74.26,74.23c-6.25,6.25-6.28,11.51-.15,17.69q12.5,12.6,25.11,25.09c6,5.94,11.46,6,17.35.25,7.37-7.24,14.72-14.51,21.88-22,1.7-1.77,2.6-4.29,3.78-6.32C190.51,226.12,190,222.86,194.64,215.88Zm25.74,2.3c11.37.37,20.82-8.79,21.21-20.56a21.25,21.25,0,0,0-42.49-1C198.76,208.43,208,217.77,220.38,218.18Zm59.8-8.54a14.33,14.33,0,0,0-14-14.53A14.44,14.44,0,1,0,266,224,14.22,14.22,0,0,0,280.18,209.64Zm-62.41,19.21A11,11,0,0,0,206.26,240a11.32,11.32,0,0,0,11.54,11.26,11.14,11.14,0,0,0,11.41-11.3C229.22,233.44,224.58,228.94,217.76,228.85Zm50.66-55.42a11.38,11.38,0,1,0-11.37,11.46A11.44,11.44,0,0,0,268.42,173.43Zm-25.54-18.26a7.19,7.19,0,0,0,7.54-6.89,7,7,0,0,0-6.7-7.19,7.22,7.22,0,0,0-7.56,6.91A7.08,7.08,0,0,0,242.88,155.17Zm5.06,72.11c-3.14-2.14-5.07-4.43-6.46-4.14a6.63,6.63,0,0,0-4.29,4.43c-.19,1.21,2.59,4,4.07,4.06C243,231.66,244.82,229.45,247.95,227.28Zm-18.29-62.81.31,2.06,4.77,2,1.37-.68c-.58-1.5-.78-3.74-1.85-4.3S231.23,164.09,229.65,164.46Zm-31.43,55.63-1.54.54,1.42,5.44,5.34-1.82Z" transform="translate(-110.89 -123.46)"/><path d="M134.86,226.2c2.29-4.09,4.06-8.62,7-12.18,4.21-5.1,9.3-9.48,14-14.22,2.26-2.29,4.8-3.48,7.34-.94s1.28,5.1-1,7.33c-4.51,4.42-9,8.85-13.42,13.37-5.06,5.19-4.86,7.33-.46,13,1.16,1.51,1.58,5,.63,6.42-1.76,2.73-4.55,1.84-6.77-.32C138.77,235.42,135.47,232.11,134.86,226.2Z" transform="translate(-110.89 -123.46)"/><path d="M162.59,254.78c-3.52-1.84-6.51-2.89-8.76-4.82-1-.88-1.34-4-.57-5.16s3.84-2.19,5-1.58c4.73,2.62,8.18.86,11.6-2.24,2.17-2,5-2.37,6.36.17.86,1.59.42,5.38-.84,6.33C171.52,250.36,167,252.34,162.59,254.78Z" transform="translate(-110.89 -123.46)"/></g></svg>