<svg id="Layer_1" data-name="Layer 1" xmlns="http://www.w3.org/2000/svg" viewBox="0 0 259.5 230.91"><defs><style>.cls-1{fill:#fa2a32;}</style></defs><title>warning</title><path class="cls-1" d="M200.31,315.81q-38.71,0-77.42,0c-7.26,0-14.44-.71-21.35-3.13C86,307.25,75.75,296.81,71.75,280.75c-2.3-9.26-1.07-18.44,2.12-27.36,3.29-9.23,8.88-17.23,13.85-25.55q33.94-56.73,68-113.4c5-8.29,10.71-15.89,18.89-21.27,14.83-9.76,30.34-11,46.33-3.07,10.55,5.2,17.77,13.84,23.69,23.73q38.2,63.72,76.42,127.43c5.86,9.78,9.55,20.27,9,31.84A41.88,41.88,0,0,1,315.91,303c-8.88,8-19.59,11.69-31.38,12.46-3.6.24-7.22.3-10.84.3Q237,315.84,200.31,315.81Zm.06-26.39c25.87,0,51.74.06,77.61-.06A51.57,51.57,0,0,0,289.75,288c10-2.4,15.18-10.6,13.62-20.6-.78-5-3.05-9.39-5.61-13.66q-34.54-57.59-69.12-115.16c-3.79-6.3-7.44-12.77-11.92-18.57-7.87-10.19-19.83-11.52-29.26-3.43a41.29,41.29,0,0,0-8.1,10q-38.21,63.32-76.12,126.82a52.43,52.43,0,0,0-5.39,11.94c-2.91,9.94,1.55,18.72,11.35,22a44.28,44.28,0,0,0,13.55,2C148.63,289.52,174.5,289.43,200.37,289.43Z" transform="translate(-70.57 -84.91)"/><path class="cls-1" d="M200.31,223.18l-3.63-9q-7.12-17.62-14.23-35.25c-3.11-7.75-2.34-15,3.19-21.45A19.66,19.66,0,0,1,210,153.37c7.79,4.22,12.08,13.88,9.32,22.33-2.22,6.78-5.12,13.34-7.78,20-3.36,8.41-6.78,16.8-10.18,25.2C201.11,221.5,200.8,222.11,200.31,223.18Z" transform="translate(-70.57 -84.91)"/><path class="cls-1" d="M200.35,266.88a17.1,17.1,0,1,1,17.16-17.18A17.16,17.16,0,0,1,200.35,266.88Z" transform="translate(-70.57 -84.91)"/></svg>